<svg width="100" height="100" viewBox="0 0 100 100" fill="none" xmlns="http://www.w3.org/2000/svg">
<path d="M50 4.16667C24.7271 4.16667 4.16669 24.7271 4.16669 50C4.16669 75.2729 24.7271 95.8333 50 95.8333C75.2729 95.8333 95.8334 75.2729 95.8334 50C95.8334 24.7271 75.2729 4.16667 50 4.16667ZM90.2771 39.5146C88.8729 39.3583 87.5271 38.7542 86.5417 37.75L83.4375 34.6458C79.8959 31.125 75.1875 29.1667 70.1875 29.1667H69.7917C66.9167 29.1667 64.5834 26.8333 64.5834 23.9583V23.625C64.5834 22.3542 65.1042 21.0833 66.0209 20.1875C66.9167 19.2708 68.1875 18.75 69.4584 18.75C71.5604 18.75 73.5583 18.1062 75.2729 16.95C82.5375 22.5187 87.9021 30.4083 90.2771 39.5146ZM26.9459 15.3208L30.625 19C31.8125 20.1875 33.3959 20.8333 35.0625 20.8333H39.5834C40.7292 20.8333 41.6667 21.7708 41.6667 22.9167V27.0833C41.6667 28.2292 40.7292 29.1667 39.5834 29.1667H35.0625C33.3959 29.1667 31.8125 29.8125 30.625 31L26.8334 34.7917C25.6459 36 25 37.6042 25.0209 39.25V39.5833C25.0209 40.1458 24.7917 40.6875 24.3959 41.0833C24 41.4792 23.5 41.6875 22.9167 41.6875L16.2917 41.6667C15.75 41.6667 15.2292 41.4583 14.8542 41.0625L10.5334 36.7417C13.5063 27.9167 19.3354 20.3979 26.9459 15.3208ZM50 91.6667C27.025 91.6667 8.33335 72.975 8.33335 50C8.33335 47.0396 8.65419 44.1562 9.24377 41.3688L11.8959 44.0208C13.0625 45.1667 14.6667 45.8333 16.2917 45.8333L22.8959 45.8542H22.9584C24.6042 45.8542 26.1459 45.2083 27.3334 44.0417C28.5209 42.8542 29.1875 41.2708 29.1875 39.5833V39.2083C29.1667 38.6667 29.3959 38.1458 29.7917 37.75L33.5834 33.9583C33.9792 33.5625 34.5 33.3333 35.0625 33.3333H39.5834C43.0209 33.3333 45.8334 30.5208 45.8334 27.0833V22.9167C45.8334 19.4792 43.0209 16.6667 39.5834 16.6667H35.0625C34.5 16.6667 33.9792 16.4375 33.5834 16.0417L30.6646 13.1229C36.4479 10.0771 43.0209 8.33333 50 8.33333C57.8021 8.33333 65.0834 10.5292 71.3334 14.275C70.7313 14.4667 70.1042 14.5833 69.4584 14.5833C67.0834 14.5833 64.75 15.5417 63.0625 17.2292C61.375 18.9167 60.4167 21.25 60.4167 23.625V23.9583C60.4167 29.125 64.625 33.3333 69.7917 33.3333H70.1875C74.0834 33.3333 77.7292 34.8542 80.4792 37.6042L83.5834 40.7083C85.5209 42.6458 88.2084 43.75 90.9584 43.75H91.1459C91.4563 45.7938 91.6667 47.8708 91.6667 50C91.6667 72.975 72.975 91.6667 50 91.6667Z" fill="black"/>
<path d="M45.8333 50H45.4771C44.9208 50 44.3958 49.7833 44.0021 49.3896L42.2771 47.6646C41.0979 46.4833 39.5271 45.8333 37.8562 45.8333H31.25C27.8042 45.8333 25 48.6375 25 52.0833V60.7729C25 62.4417 25.65 64.0125 26.8312 65.1937L28.5562 66.9187C28.95 67.3125 29.1667 67.8354 29.1667 68.3937V77.0833C29.1667 80.5292 31.9708 83.3333 35.4167 83.3333H37.5C40.9458 83.3333 43.75 80.5292 43.75 77.0833V74.6437C43.75 74.0875 43.9667 73.5625 44.3604 73.1687L50.2521 67.2771C51.4333 66.0979 52.0833 64.5271 52.0833 62.8562V56.25C52.0833 52.8042 49.2792 50 45.8333 50ZM47.9167 62.8562C47.9167 63.4125 47.7 63.9375 47.3063 64.3312L41.4146 70.2229C40.2333 71.4021 39.5833 72.9729 39.5833 74.6437V77.0833C39.5833 78.2312 38.6479 79.1667 37.5 79.1667H35.4167C34.2688 79.1667 33.3333 78.2312 33.3333 77.0833V68.3937C33.3333 66.725 32.6833 65.1542 31.5021 63.9729L29.7771 62.2479C29.3833 61.8542 29.1667 61.3312 29.1667 60.7729V52.0833C29.1667 50.9354 30.1021 50 31.25 50H37.8562C38.4125 50 38.9375 50.2167 39.3313 50.6104L41.0563 52.3354C42.2354 53.5167 43.8063 54.1667 45.4771 54.1667H45.8333C46.9813 54.1667 47.9167 55.1021 47.9167 56.25V62.8562Z" fill="black"/>
<path d="M76.8292 40.55C74.8625 38.5833 72.2458 37.5 69.4646 37.5H62.5C59.0542 37.5 56.25 40.3042 56.25 43.75V46.1896C56.25 47.8583 56.9 49.4292 58.0812 50.6104L66.0563 58.5854C66.45 58.9792 66.6667 59.5021 66.6667 60.0604V64.5833C66.6667 68.0292 69.4708 70.8333 72.9167 70.8333C76.3625 70.8333 79.1667 68.0292 79.1667 64.5833V62.1437C79.1667 61.5875 79.3833 61.0625 79.7771 60.6687L83.9438 56.5021C85.1229 55.3229 85.7729 53.7521 85.7729 52.0833C85.7729 50.4146 85.1229 48.8437 83.9438 47.6646L76.8292 40.55ZM80.9979 53.5563L76.8313 57.7229C75.65 58.9021 75 60.4729 75 62.1437V64.5833C75 65.7312 74.0646 66.6667 72.9167 66.6667C71.7688 66.6667 70.8333 65.7312 70.8333 64.5833V60.0604C70.8333 58.3917 70.1833 56.8208 69.0021 55.6396L61.0271 47.6646C60.6333 47.2708 60.4167 46.7479 60.4167 46.1896V43.75C60.4167 42.6021 61.3521 41.6667 62.5 41.6667H69.4646C71.1104 41.6667 72.7188 42.3333 73.8833 43.4958L80.9979 50.6104C81.8104 51.4229 81.8104 52.7438 80.9979 53.5563Z" fill="black"/>
</svg>
