<svg width="100" height="100" viewBox="0 0 100 100" fill="none" xmlns="http://www.w3.org/2000/svg">
<path d="M81.625 52.6875L66.9167 40.1875C65.5417 39.0625 63.9375 38.2917 62.2708 37.9583L57.9 37.0583C57.2646 35.0813 55.9292 33.4375 54.1667 32.4083V6.4375C54.1667 4.04167 52.2083 2.08333 49.8125 2.08333C47.6875 2.08333 45.8958 3.60417 45.5417 5.66667L42.0833 24.6042C41.7708 26.3125 41.8958 28.0833 42.4375 29.7708L43.8542 34.0042C42.5146 35.4792 41.6771 37.4146 41.6688 39.5563L19.2083 52.5417C17.125 53.75 16.4167 56.4167 17.625 58.5208C18.4375 59.8958 19.8958 60.6875 21.3958 60.6875C21.875 60.6875 22.375 60.6042 22.8542 60.4167L40.9792 53.9167C42.075 53.5417 43.0854 52.9583 43.9896 52.2271L41.7938 85.4167H33.3313C28.7354 85.4167 24.9979 89.1542 24.9979 93.75C24.9979 96.0479 26.8667 97.9167 29.1646 97.9167H70.8313C73.1292 97.9167 74.9979 96.0479 74.9979 93.75C74.9979 89.1542 71.2604 85.4167 66.6646 85.4167H58.2042L55.7208 47.7146L76.625 59.7708C77.2917 60.1458 78.0417 60.3542 78.7917 60.3542C79.1667 60.3542 79.5625 60.2917 79.9375 60.1875C81.0625 59.8958 82 59.1667 82.5833 58.1667C83.625 56.3542 83.2292 54.0417 81.625 52.6875ZM45.8333 39.5833C45.8333 37.2854 47.7021 35.4167 50 35.4167C52.2979 35.4167 54.1667 37.2854 54.1667 39.5833C54.1667 41.8813 52.2979 43.75 50 43.75C47.7021 43.75 45.8333 41.8813 45.8333 39.5833ZM46.1667 25.3542L49.6458 6.39583C49.6667 6.20833 50 6.25 50 6.4375V31.25C49.1146 31.25 48.2771 31.425 47.475 31.6833L46.3958 28.4583C46.0625 27.4375 45.9792 26.375 46.1667 25.3542ZM39.5833 50L21.4167 56.5C21.375 56.5208 21.2708 56.4792 21.2292 56.4167C21.1667 56.3333 21.2083 56.2083 21.2917 56.1667L42.8146 43.7292C43.2479 44.4771 43.7813 45.1479 44.4167 45.725L42.1458 48.2688C41.4583 49.0604 40.5625 49.6458 39.5833 50ZM70.8333 93.75H29.1667C29.1667 91.4521 31.0354 89.5833 33.3333 89.5833H66.6667C68.9646 89.5833 70.8333 91.4521 70.8333 93.75ZM45.9708 85.4167L48.4708 47.7625C48.9688 47.8542 49.475 47.9167 50 47.9167C50.525 47.9167 51.0354 47.8542 51.5354 47.7625L54.0292 85.4167H45.9708ZM78.9583 56.0833C78.9167 56.1667 78.7917 56.1875 78.7083 56.1458L57.1854 43.7292C57.6104 42.9958 57.9479 42.2083 58.1333 41.3563L61.4583 42.0417C62.4583 42.25 63.4167 42.7083 64.2292 43.375L78.9167 55.8542C79 55.9167 79 56.0208 78.9583 56.0833Z" fill="black"/>
<path d="M62.9521 29.0937C63.8688 30.225 64.6333 31.4729 65.225 32.8042C65.5708 33.5792 66.3313 34.0417 67.1292 34.0417C67.4125 34.0417 67.7 33.9833 67.975 33.8604C69.025 33.3917 69.4979 32.1625 69.0313 31.1104C68.2917 29.4479 67.3354 27.8875 66.1896 26.4729C65.0438 25.0604 63.7167 23.8 62.2438 22.7292C61.3125 22.0542 60.0104 22.2604 59.3333 23.1896C58.6563 24.1208 58.8625 25.4229 59.7938 26.1C60.9708 26.9562 62.0333 27.9646 62.95 29.0958L62.9521 29.0937Z" fill="black"/>
<path d="M61.35 17.3083C64.5813 18.9562 67.4708 21.3354 69.7 24.1917C71.9313 27.0479 73.5438 30.4271 74.3604 33.9583C74.5813 34.9208 75.4396 35.5729 76.3875 35.5729C76.5438 35.5729 76.7 35.5562 76.8583 35.5188C77.9792 35.2604 78.6792 34.1417 78.4188 33.0208C77.4667 28.8979 75.5875 24.9583 72.9833 21.625C70.3792 18.2917 67.0104 15.5146 63.2417 13.5937C62.2125 13.0687 60.9625 13.4792 60.4396 14.5042C59.9188 15.5292 60.325 16.7854 61.35 17.3083Z" fill="black"/>
<path d="M31.275 30.45C30.4771 32.0875 29.8979 33.8229 29.55 35.6083C29.3312 36.7375 30.0687 37.8312 31.1979 38.05C31.3312 38.0771 31.4646 38.0896 31.5958 38.0896C32.5729 38.0896 33.4458 37.3979 33.6375 36.4021C33.9146 34.9729 34.3792 33.5854 35.0167 32.2792C35.6583 30.9667 36.4646 29.7458 37.4187 28.65C38.175 27.7812 38.0833 26.4667 37.2146 25.7104C36.3458 24.9542 35.0312 25.0437 34.275 25.9146C33.0833 27.2854 32.0729 28.8104 31.2729 30.45H31.275Z" fill="black"/>
<path d="M22.8604 40.7208C22.8854 40.7208 22.9104 40.7208 22.9354 40.7208C24.0521 40.7208 24.9771 39.8354 25.0167 38.7104C25.1438 35.0854 26.0813 31.4625 27.7271 28.2333C29.375 25.0021 31.7542 22.1125 34.6104 19.8833C35.5167 19.175 35.6771 17.8667 34.9688 16.9583C34.2604 16.0521 32.9521 15.8917 32.0438 16.6C28.7104 19.2042 25.9333 22.5729 24.0125 26.3417C22.0917 30.1104 21 34.3375 20.85 38.5646C20.8104 39.7146 21.7125 40.6792 22.8604 40.7208Z" fill="black"/>
</svg>
