<svg width="100" height="100" viewBox="0 0 100 100" fill="none" xmlns="http://www.w3.org/2000/svg">
<path d="M88.5479 39.6896C89.2083 37.5875 89.5833 35.4125 89.5833 33.5C89.5833 28.0625 87.7917 24.7083 83.7917 22.6042C81.0833 21.1667 78.8125 21.625 76.8125 22.0208C76.7562 22.0312 76.7021 22.0354 76.6458 22.0438C77.325 19.6958 78.7667 18.1917 78.8125 18.1438C79.625 17.3313 79.625 16.0188 78.8333 15.2063C78.0208 14.3938 76.7083 14.3729 75.875 15.1854C75.75 15.3104 73.1396 17.9542 72.3583 22.1271C72.1083 22.0938 71.8604 22.0667 71.6042 22.0188C69.7146 21.6417 67.5542 21.225 65.0062 22.4375C64.3396 19.6146 62.3792 17.2 59.6792 16.0083C59.5437 13.7958 58.7062 11.6917 57.2542 9.9625C55.4625 7.83334 52.95 6.52708 50.1896 6.2875C47.4167 6.04375 44.7208 6.87917 42.5896 8.66667C40.8542 10.1188 39.6667 12.05 39.1521 14.2104C35.3271 15.1604 32.3917 18.4646 32.0521 22.4542C31.9146 23.8729 32.1187 25.2896 32.6479 26.6333C32.5104 26.75 32.3958 26.8917 32.2667 27.0167C30.3792 24.025 27.1333 22.0729 23.5479 21.9125L25.4583 17.8313C25.9583 16.7896 25.5 15.5396 24.4583 15.0604C23.4167 14.5604 22.1667 15.0188 21.6875 16.0604L20.2917 19.0604L19.1667 15.9563C18.7708 14.8729 17.5625 14.3104 16.5 14.7063C15.4167 15.1021 14.8542 16.2896 15.25 17.3729L16.375 20.4771L13.375 19.0813C12.3333 18.6021 11.1042 19.0604 10.6042 20.1021C10.125 21.1438 10.5833 22.3729 11.625 22.8521L15.7062 24.7708C14.5812 25.8021 13.6646 27.0563 13.0625 28.4771C11.875 31.2271 11.8958 34.3938 13.0833 37.1229L14.1542 39.5813H12.5C9.05417 39.5813 6.25 42.3854 6.25 45.8313V49.9979C6.25 63.1063 12.4604 75.475 22.9167 83.3083V87.4979C22.9167 90.9437 25.7208 93.7479 29.1667 93.7479H70.8333C74.2792 93.7479 77.0833 90.9437 77.0833 87.4979V83.1208C87.5396 75.0396 93.75 62.3812 93.75 49.0396V45.8313C93.75 42.7438 91.4937 40.1896 88.5479 39.6875V39.6896ZM70.7917 26.1042C71.7917 26.2917 72.9375 26.5208 74.2083 26.5208C75.4792 26.5208 76.625 26.2917 77.625 26.1042C79.4792 25.7292 80.5 25.5833 81.8333 26.2708C84.0417 27.4375 85.4167 29.0625 85.4167 33.5C85.4167 34.9583 85.0479 37.2375 84.1604 39.5833H64.2771C63.3896 37.2375 63.0208 34.9583 63.0208 33.5C63.0208 29.0625 64.3958 27.4375 66.6042 26.2708C67.9375 25.5833 68.9583 25.7292 70.7917 26.1042ZM36.3333 29.1313C36.8438 28.8521 37.2125 28.3729 37.3542 27.8083C37.4958 27.2438 37.3937 26.6458 37.075 26.1604C36.5979 25.4354 36.0604 24.275 36.2021 22.8354C36.4208 20.2521 38.4833 18.2667 41.1021 18.1146C42.1354 18.0542 42.9688 17.1396 43.0562 16.1083C43.2 14.4438 43.9854 12.9375 45.2667 11.8646C46.5417 10.7958 48.15 10.2917 49.825 10.4417C51.4875 10.5854 52.9937 11.3688 54.0687 12.6479C55.0854 13.8563 55.5979 15.3688 55.525 17.0854C55.4979 17.2229 55.4833 17.3646 55.4833 17.4917C55.4833 18.4604 56.15 19.3 57.0917 19.5208C59.6479 20.1188 61.3312 22.4271 61.0938 25.0125C61.0729 25.2354 61.025 25.4521 60.9771 25.6688C59.5375 27.6271 58.8562 30.1708 58.8562 33.5C58.8562 35.3792 59.2167 37.5146 59.8583 39.5833H51.3833L54.6479 36.8333C55.5438 36.0833 55.6479 34.7708 54.9187 33.8958C54.1687 33 52.8562 32.8958 51.9812 33.625L49.7313 35.5208L50.1271 31.0208L54.4396 27.3958C55.3146 26.6458 55.4396 25.3333 54.6896 24.4583C53.9604 23.5833 52.6479 23.4583 51.7521 24.2083L50.6271 25.1458L51.0021 21C51.0854 19.8542 50.2521 18.8333 49.1062 18.7292C47.9396 18.625 46.9396 19.4792 46.8354 20.625L46.4813 24.7917L45.5229 23.6667C44.7937 22.7708 43.4813 22.6667 42.6063 23.3958C41.7104 24.1458 41.6062 25.4583 42.3354 26.3333L45.9812 30.6667L45.5854 35.1667L43.6688 32.9167C42.9396 32.0208 41.6271 31.9167 40.7521 32.6458C39.8563 33.3958 39.7521 34.7083 40.4812 35.5833L43.8396 39.5833H36.4333L34.0187 31.3917C34.5875 30.4458 35.3813 29.6521 36.3333 29.1313ZM16.9167 35.4583C16.1458 33.7292 16.1458 31.8542 16.875 30.125C17.625 28.3958 19 27.1042 20.7917 26.4583C21.5208 26.1875 22.2917 26.0417 23.0833 26.0417C26.0208 26.0417 28.6667 28.0417 29.5208 30.875L32.0937 39.5833H18.7083L16.9167 35.4583ZM73.7687 80.4042C73.2333 80.7958 72.9167 81.4208 72.9167 82.0854V87.5021C72.9167 88.6521 71.9812 89.5854 70.8333 89.5854H29.1667C28.0187 89.5854 27.0833 88.6521 27.0833 87.5021V82.2521C27.0833 81.5771 26.7562 80.9437 26.2042 80.5542C17.4604 74.3542 11.8417 64.7042 10.6583 54.1688H72.9167C74.0667 54.1688 75 53.2375 75 52.0854C75 50.9333 74.0667 50.0021 72.9167 50.0021H10.4167V45.8354C10.4167 44.6875 11.3521 43.7521 12.5 43.7521H87.5C88.6479 43.7521 89.5833 44.6875 89.5833 45.8354V49.0438C89.5833 49.3646 89.5625 49.6833 89.5542 50.0021H83.3333C82.1833 50.0021 81.25 50.9354 81.25 52.0854C81.25 53.2354 82.1833 54.1688 83.3333 54.1688H89.2312C87.8458 64.6021 82.2896 74.1583 73.7667 80.4062L73.7687 80.4042Z" fill="black"/>
</svg>
