<svg width="100" height="100" viewBox="0 0 100 100" fill="none" xmlns="http://www.w3.org/2000/svg">
<path d="M87.5 31.25H85.4167V27.0833C85.4167 16.7458 77.0062 8.33334 66.6667 8.33334H33.3333C22.9937 8.33334 14.5833 16.7458 14.5833 27.0833V31.25H12.5C9.0625 31.25 6.25 34.0625 6.25 37.5V45.8333C6.25 49.2708 9.0625 52.0833 12.5 52.0833H14.5833V70.8333C14.5833 75.0938 17.1604 78.7542 20.8333 80.3667V85.4167C20.8333 88.8542 23.6458 91.6667 27.0833 91.6667H33.3333C36.7708 91.6667 39.5833 88.8542 39.5833 85.4167V81.25H60.4167V85.4167C60.4167 88.8542 63.2292 91.6667 66.6667 91.6667H72.9167C76.3542 91.6667 79.1667 88.8542 79.1667 85.4167V80.3667C82.8396 78.7542 85.4167 75.0938 85.4167 70.8333V52.0833H87.5C90.9375 52.0833 93.75 49.2708 93.75 45.8333V37.5C93.75 34.0625 90.9375 31.25 87.5 31.25ZM18.75 29.1667H47.9167V54.1667H28.8125C25.3187 54.1667 21.85 53.3542 18.75 51.8104V29.1667ZM52.0833 29.1667H81.25V51.8229C78.1646 53.3542 74.6896 54.1667 71.1875 54.1667H52.0833V29.1667ZM33.3333 12.5H66.6667C73.9979 12.5 80.0667 17.9438 81.0833 25H18.9167C19.9333 17.9438 26.0021 12.5 33.3333 12.5ZM12.5 47.9167C11.3542 47.9167 10.4167 46.9792 10.4167 45.8333V37.5C10.4167 36.3542 11.3542 35.4167 12.5 35.4167H14.5833V47.9167H12.5ZM35.4167 85.4167C35.4167 86.5625 34.4792 87.5 33.3333 87.5H27.0833C25.9375 87.5 25 86.5625 25 85.4167V81.25H35.4167V85.4167ZM75 85.4167C75 86.5625 74.0625 87.5 72.9167 87.5H66.6667C65.5208 87.5 64.5833 86.5625 64.5833 85.4167V81.25H75V85.4167ZM75 77.0834H25C21.5542 77.0834 18.75 74.2792 18.75 70.8333V56.3417C21.925 57.6229 25.3542 58.3333 28.8125 58.3333H71.1875C74.65 58.3333 78.0833 57.6229 81.25 56.35V70.8333C81.25 74.2792 78.4458 77.0834 75 77.0834ZM89.5833 45.8333C89.5833 46.9792 88.6458 47.9167 87.5 47.9167H85.4167V35.4167H87.5C88.6458 35.4167 89.5833 36.3542 89.5833 37.5V45.8333Z" fill="black"/>
<path d="M29.1667 68.75H25C23.8479 68.75 22.9167 69.6833 22.9167 70.8333C22.9167 71.9833 23.8479 72.9167 25 72.9167H29.1667C30.3188 72.9167 31.25 71.9833 31.25 70.8333C31.25 69.6833 30.3188 68.75 29.1667 68.75Z" fill="black"/>
<path d="M75 68.75H70.8333C69.6813 68.75 68.75 69.6833 68.75 70.8333C68.75 71.9833 69.6813 72.9167 70.8333 72.9167H75C76.1521 72.9167 77.0833 71.9833 77.0833 70.8333C77.0833 69.6833 76.1521 68.75 75 68.75Z" fill="black"/>
</svg>
