<svg width="100" height="100" viewBox="0 0 100 100" fill="none" xmlns="http://www.w3.org/2000/svg">
<g clip-path="url(#clip0_2_118)">
<path d="M90.3604 50.1479C82.6792 44.675 72.775 43.95 65.1167 48.3083C59.4042 51.5583 56.5792 56.6521 55.2083 60.3687V47.1646C63.0187 44.9 68.75 37.6958 68.75 29.1667V24.4208C69.9896 23.6979 70.8333 22.3687 70.8333 20.8333V16.6667C70.8333 14.3687 68.9646 12.5 66.6667 12.5H64.5833V5.20833C64.5833 2.3375 62.2458 0 59.375 0C56.5042 0 54.1667 2.3375 54.1667 5.20833V12.5H45.8333V5.20833C45.8333 2.3375 43.4958 0 40.625 0C37.7542 0 35.4167 2.3375 35.4167 5.20833V12.5H33.3333C31.0354 12.5 29.1667 14.3687 29.1667 16.6667V20.8333C29.1667 22.3687 30.0104 23.6979 31.25 24.4208V29.1667C31.25 37.6958 36.9812 44.9 44.7917 47.1646V60.3687C43.4229 56.6521 40.5979 51.5583 34.8833 48.3083C27.2292 43.9562 17.3208 44.675 9.64375 50.1479C8.85625 50.7104 8.37916 51.5875 8.3375 52.5604C8.29583 53.5437 8.69999 54.4687 9.44999 55.1083C10.3937 55.9062 11.575 56.9396 12.8917 58.1771C15.0375 60.1937 16.3646 61.6437 17.4292 62.8083C18.9104 64.4271 19.9833 65.6 21.9667 66.9042C23.1812 67.7062 26.8812 70.1396 32.1021 70.45C32.4792 70.4729 32.85 70.4833 33.2146 70.4833C37.7187 70.4833 41.3917 68.8542 43.8812 67.3042C44.2062 67.5396 44.5083 67.7854 44.7917 68.0396V95.8375C44.7917 98.1354 46.6604 100.004 48.9583 100.004H51.0417C53.3396 100.004 55.2083 98.1354 55.2083 95.8375V68.0396C55.4917 67.7854 55.7938 67.5396 56.1187 67.3042C58.6083 68.8562 62.2812 70.4854 66.7854 70.4833C67.15 70.4833 67.5229 70.4729 67.8979 70.45C73.1188 70.1396 76.8167 67.7063 78.0313 66.9062C80.0167 65.6 81.0875 64.4292 82.5708 62.8083C83.6375 61.6437 84.9625 60.1937 87.1104 58.1771C88.4271 56.9396 89.6083 55.9062 90.5542 55.1042C91.3 54.4688 91.7042 53.5437 91.6625 52.5604C91.6208 51.5896 91.1438 50.7104 90.3583 50.15L90.3604 50.1479ZM58.3333 5.20833C58.3333 4.63333 58.8 4.16667 59.375 4.16667C59.95 4.16667 60.4167 4.63333 60.4167 5.20833V12.5H58.3333V5.20833ZM39.5833 5.20833C39.5833 4.63333 40.05 4.16667 40.625 4.16667C41.2 4.16667 41.6667 4.63333 41.6667 5.20833V12.5H39.5833V5.20833ZM33.3333 16.6667H66.6667V20.8333H33.3333V16.6667ZM35.4167 29.1667V25H64.5833V29.1667C64.5833 37.2083 58.0417 43.75 50 43.75C41.9583 43.75 35.4167 37.2083 35.4167 29.1667ZM32.35 66.2875C28.2417 66.0417 25.2417 64.0687 24.2562 63.4187C22.7042 62.4 21.875 61.4937 20.5021 59.9917C19.3896 58.775 18.0042 57.2604 15.7437 55.1375C14.8062 54.2562 13.9354 53.4729 13.1646 52.8021C19.3437 48.9458 26.9271 48.5771 32.8229 51.9292C36.7375 54.1542 38.9708 57.4771 40.2562 60.3083C36.6396 58.3521 32.9042 56.6312 29.0646 55.2271C28.1687 54.8937 27.2521 54.5812 26.3771 54.3104C25.2937 53.9562 24.1271 54.5604 23.7729 55.6646C23.4187 56.7479 24.0229 57.9146 25.1271 58.2687C25.9604 58.5396 26.7937 58.8521 27.6271 59.1437C31.8146 60.6771 35.8917 62.5708 39.7979 64.7875C37.8 65.7188 35.2625 66.4437 32.3521 66.2875H32.35ZM48.9583 95.8333V47.8646C49.3062 47.8833 49.6479 47.9167 50 47.9167C50.3521 47.9167 50.6937 47.8833 51.0417 47.8646V95.8333H48.9583ZM84.2563 55.1396C81.9958 57.2646 80.6104 58.7771 79.4958 59.9937C78.1229 61.4958 77.2938 62.4 75.7417 63.4229C74.7562 64.0708 71.7583 66.0437 67.65 66.2896C64.7375 66.45 62.2 65.7229 60.2021 64.7896C64.1083 62.575 68.1833 60.6792 72.3542 59.1458C73.2083 58.8542 74.0417 58.5417 74.875 58.2708C75.9792 57.9167 76.5833 56.75 76.2292 55.6667C75.875 54.5625 74.7083 53.9583 73.625 54.3125C72.75 54.5833 71.8333 54.8958 70.9167 55.2292C67.0938 56.6312 63.3646 58.35 59.7479 60.3042C61.0333 57.475 63.2667 54.1542 67.1771 51.9292C73.0729 48.5771 80.6562 48.9479 86.8375 52.8021C86.0646 53.475 85.1938 54.2562 84.2583 55.1375L84.2563 55.1396Z" fill="black"/>
</g>
<defs>
<clipPath id="clip0_2_118">
<rect width="100" height="100" fill="white"/>
</clipPath>
</defs>
</svg>
