<svg width="100" height="100" viewBox="0 0 100 100" fill="none" xmlns="http://www.w3.org/2000/svg">
<path d="M95.1708 64.5208L83.7083 33.9562C83.1021 32.3396 81.5354 31.2521 79.8062 31.2521H60.7812C61.8771 29.3687 62.5 27.2167 62.5 25.0021C62.5 18.1062 56.8958 12.5021 50 12.5021C43.1042 12.5021 37.5 18.1062 37.5 25.0021C37.5 27.2167 38.1229 29.3687 39.2187 31.2521H20.1937C18.4646 31.2521 16.8979 32.3396 16.2917 33.9562L4.82917 64.5229C4.38958 65.6958 4.16667 66.9271 4.16667 68.1792V72.9187C4.16667 75.2167 6.03542 77.0854 8.33333 77.0854H43.75V83.3354H25C22.7021 83.3354 20.8333 85.2042 20.8333 87.5021V91.6687C20.8333 93.9667 22.7021 95.8354 25 95.8354H75C77.2979 95.8354 79.1667 93.9667 79.1667 91.6687V87.5021C79.1667 85.2042 77.2979 83.3354 75 83.3354H56.25V77.0854H91.6667C93.9646 77.0854 95.8333 75.2167 95.8333 72.9187V68.1792C95.8333 66.9271 95.6104 65.6958 95.1708 64.5229V64.5208ZM11.7958 57.8125H26.7083L25.375 64.5833H9.25833L11.7958 57.8125ZM16.0917 46.3542H28.9583L27.5208 53.6458H13.3583L16.0917 46.3542ZM35.3333 35.4167H47.9167V42.1875H34L35.3333 35.4167ZM64.6667 35.4167L66 42.1875H52.0833V35.4167H64.6667ZM86.6417 53.6458H72.4792L71.0417 46.3542H83.9063L86.6417 53.6458ZM68.25 53.6458H52.0833V46.3542H66.8125L68.25 53.6458ZM47.9167 46.3542V53.6458H31.75L33.1875 46.3542H47.9167ZM30.9375 57.8125H47.9167V64.5833H29.6146L30.9375 57.8125ZM52.0833 57.8125H69.0625L70.3854 64.5833H52.0833V57.8125ZM74.625 64.5833L73.2917 57.8125H88.2042L90.7437 64.5833H74.625ZM82.3438 42.1875H70.2292L68.9063 35.4167H79.8042L82.3438 42.1875ZM41.6667 25C41.6667 20.3958 45.3958 16.6667 50 16.6667C54.6042 16.6667 58.3333 20.3958 58.3333 25C58.3333 27.4 57.2354 29.6792 55.4375 31.25H44.5625C42.7646 29.6792 41.6667 27.4 41.6667 25ZM31.0937 35.4167L29.7708 42.1875H17.6542L20.1937 35.4167H31.0937ZM75.0021 91.6667H25V87.5H75L75.0021 91.6667ZM52.0833 83.3333H47.9167V77.0833H52.0833V83.3333ZM8.33333 72.9167V68.75H91.6667V72.9167H8.33333Z" fill="black"/>
<path d="M63.5708 15.1687L65.1187 13.775C65.9729 13.0042 66.0437 11.6875 65.2729 10.8333C64.5021 9.97916 63.1854 9.90833 62.3313 10.6792L60.7833 12.0729C59.9292 12.8437 59.8583 14.1604 60.6292 15.0146C61.4 15.8687 62.7167 15.9396 63.5708 15.1687Z" fill="black"/>
<path d="M36.4292 15.1687C37.2833 15.9396 38.6021 15.8687 39.3708 15.0146C40.1417 14.1604 40.0708 12.8417 39.2167 12.0729L37.6687 10.6792C36.8146 9.90833 35.4958 9.97916 34.7271 10.8333C33.9563 11.6875 34.0271 13.0062 34.8813 13.775L36.4292 15.1687Z" fill="black"/>
<path d="M64.5479 23.9833C64.6292 25.1313 65.6229 25.9958 66.7708 25.9167L68.85 25.7708C69.9979 25.6896 70.8625 24.6958 70.7833 23.5479C70.7042 22.4 69.7083 21.5354 68.5604 21.6146L66.4812 21.7604C65.3333 21.8417 64.4687 22.8354 64.5479 23.9833Z" fill="black"/>
<path d="M31.15 25.7708L33.2292 25.9167C34.3771 25.9979 35.3729 25.1313 35.4521 23.9833C35.5312 22.8354 34.6667 21.8396 33.5188 21.7604L31.4396 21.6146C30.2917 21.5333 29.2958 22.4 29.2167 23.5479C29.1375 24.6958 30.0021 25.6917 31.15 25.7708Z" fill="black"/>
<path d="M50 10.4167C51.15 10.4167 52.0833 9.48332 52.0833 8.33332V6.24999C52.0833 5.09999 51.15 4.16666 50 4.16666C48.85 4.16666 47.9167 5.09999 47.9167 6.24999V8.33332C47.9167 9.48332 48.85 10.4167 50 10.4167Z" fill="black"/>
</svg>
